Coordinates
version=1
nRows=22
nColumns=24
inDegrees=yes

Units are S.I. units (second, meters, Newtons, ...)
Angles are in degrees.

endheader
time	pelvis_tilt	pelvis_list	pelvis_rotation	pelvis_tx	pelvis_ty	pelvis_tz	hip_flexion_r	hip_adduction_r	hip_rotation_r	knee_angle_r	ankle_angle_r	subtalar_angle_r	mtp_angle_r	hip_flexion_l	hip_adduction_l	hip_rotation_l	knee_angle_l	ankle_angle_l	subtalar_angle_l	mtp_angle_l	lumbar_extension	lumbar_bending	lumbar_rotation
      1.20016667	     -7.29152048	     -2.24308541	     -6.42977315	      0.07747733	      1.01738244	      0.34011286	    -10.51951836	      3.38719739	      1.00182294	    -10.68458682	     20.52152593	      4.15227625	      4.36711348	     36.11258489	     -5.99449442	     -2.36418694	     -8.10655946	      9.42238840	      6.15880653	      4.61628630	     -2.92437639	      6.37345581	      3.71095471
      1.20433333	     -7.28093638	     -2.17128103	     -6.53011553	      0.08379394	      1.01685124	      0.33965172	    -10.65122203	      3.18196975	      0.85021556	    -11.16268980	     20.43664321	      4.50989998	      4.72079491	     36.06755422	     -5.87089255	     -2.17614199	     -8.69879813	      9.11462885	      6.03790381	      4.74719741	     -2.86957907	      6.23775213	      3.77573035
      1.20850000	     -7.28929372	     -2.09034289	     -6.62516965	      0.09016388	      1.01634827	      0.33918806	    -10.75708676	      2.96864169	      0.70826364	    -11.64845730	     20.26608940	      4.83179919	      5.18602282	     36.03325152	     -5.73888727	     -2.00088639	     -9.27265495	      8.74132327	      5.91648032	      4.90343165	     -2.78182715	      6.07786008	      3.83262480
      1.21266667	     -7.28841152	     -2.00179164	     -6.71686012	      0.09656680	      1.01591928	      0.33869868	    -10.85943219	      2.74288394	      0.56767998	    -12.15652882	     20.05806437	      5.14727115	      5.75575892	     35.98515201	     -5.59733969	     -1.84584998	     -9.84380906	      8.32822158	      5.77326902	      5.07293752	     -2.70134755	      5.91320824	      3.87640201
      1.21683333	     -7.28666556	     -1.93962613	     -6.80761984	      0.10298493	      1.01556510	      0.33825169	    -10.97903319	      2.55772565	      0.55820519	    -12.62739316	     19.70084511	      5.21994861	      5.84001476	     35.95047313	     -5.49347153	     -1.76465537	    -10.44711938	      7.91699364	      5.76381764	      5.08975212	     -2.62461130	      5.78916726	      3.87318452
      1.22100000	     -7.29669564	     -1.81828842	     -6.89341597	      0.10943372	      1.01521419	      0.33771540	    -11.01455762	      2.28493032	      0.33822516	    -13.23859939	     19.51810233	      5.68851672	      6.31554631	     35.91251087	     -5.31864374	     -1.61396039	    -11.01688539	      7.43071542	      5.48078084	      5.18869634	     -2.52544957	      5.57288287	      3.95130481
      1.22516667	     -7.25980168	     -1.72611607	     -6.96662672	      0.11588141	      1.01503464	      0.33719162	    -11.12764937	      2.05367228	      0.26865832	    -13.77191984	     19.02425858	      5.76405361	     10.65809795	     35.82469979	     -5.16776816	     -1.47093482	    -11.57963935	      6.88619692	      5.22573538	      6.02354300	     -2.49342570	      5.40596098	      3.90009997
      1.22933333	     -7.28949485	     -1.62274203	     -7.05333306	      0.12236721	      1.01477872	      0.33665020	    -11.11599896	      1.80396654	      0.11595876	    -14.42569388	     18.68305429	      6.09778648	     10.75844123	     35.84061243	     -5.03057844	     -1.45544228	    -12.22379741	      6.45166182	      5.13239805	      6.01610104	     -2.35983219	      5.22594440	      3.97539517
      1.23350000	     -7.29181255	     -1.50394313	     -7.12300164	      0.12888768	      1.01464756	      0.33611327	    -11.13806890	      1.54474572	      0.02547592	    -15.05634348	     18.23965265	      6.30099408	     10.84919295	     35.82138784	     -4.87095315	     -1.42639414	    -12.85269794	      5.96906584	      4.98756626	      6.00503627	     -2.25273868	      5.00542113	      3.97195692
      1.23766667	     -7.28607816	     -1.37486391	     -7.18568369	      0.13537817	      1.01455873	      0.33547935	    -11.10740849	      1.25532195	     -0.18938548	    -15.80805944	     17.87769996	      6.65183004	     11.10020018	     35.80076217	     -4.68804636	     -1.35228647	    -13.49432069	      5.49945575	      4.66487697	      5.98750797	     -2.15503796	      4.80543434	      4.00372865
      1.24183333	     -7.27662551	     -1.25527138	     -7.24313323	      0.14188318	      1.01456650	      0.33485739	    -11.08369206	      0.98511583	     -0.30767494	    -16.53128990	     17.30088594	      6.79877271	     14.46372664	     35.77598692	     -4.51645503	     -1.27747962	    -14.13766614	      5.03078426	      4.39683279	      5.82229272	     -2.06919185	      4.61730550	      3.98112548
      1.24600000	     -7.27060572	     -1.11437877	     -7.29661195	      0.14841279	      1.01460114	      0.33422559	    -11.01482358	      0.68655467	     -0.47887475	    -17.34010659	     16.80070918	      7.06733374	     14.54402385	     35.77717281	     -4.33355992	     -1.29300898	    -14.83535591	      4.66019267	      4.22552624	      5.80547132	     -1.96576968	      4.38043744	      3.99623387
      1.25016667	     -7.22148979	     -0.99513803	     -7.33941720	      0.15492783	      1.01477417	      0.33358164	    -10.98914297	      0.41552575	     -0.58110921	    -18.14118086	     16.17156198	      7.17166374	     14.58772376	     35.73921484	     -4.16699492	     -1.31966759	    -15.54856652	      4.32785837	      4.10218323	      5.79258812	     -1.91423053	      4.19247862	      3.97300804
      1.25433333	     -7.20552177	     -0.83447191	     -7.37607638	      0.16141861	      1.01492980	      0.33283510	    -10.85186183	      0.07780675	     -0.82769991	    -19.08321675	     15.65482749	      7.62083024	     15.04304053	     35.71476256	     -3.93743182	     -1.21102251	    -16.21107235	      3.96124655	      3.71751681	      5.72318550	     -1.84345155	      3.93523067	      3.99022755
      1.25850000	     -7.18103962	     -0.67497840	     -7.39283444	      0.16796584	      1.01515718	      0.33216309	    -10.73574514	     -0.23149275	     -0.95618197	    -19.99370925	     14.98373742	      7.71365642	     15.19197585	     35.70056634	     -3.72420773	     -1.23755478	    -16.91874290	      3.67351318	      3.63066854	      5.69539512	     -1.74954476	      3.65328900	      3.94861192
      1.26266667	     -7.15197994	     -0.51675436	     -7.41164082	      0.17443829	      1.01543011	      0.33138740	    -10.56130590	     -0.56235208	     -1.16265901	    -21.00653273	     14.28932160	      7.89823736	     19.41251948	     35.66991636	     -3.49363910	     -1.18080565	    -17.60032599	      3.38805621	      3.33430735	      5.03250569	     -1.68034928	      3.42875967	      3.92710276
      1.26683333	     -7.10209203	     -0.35146429	     -7.41032318	      0.18093215	      1.01576524	      0.33061302	    -10.38989859	     -0.89717797	     -1.37121375	    -22.05908663	     13.61100500	      8.09770068	     19.47202717	     35.62531336	     -3.25568273	     -1.19318082	    -18.30190227	      3.22524950	      3.24928226	      5.01645275	     -1.62354499	      3.16074480	      3.90932451
      1.27100000	     -7.05077197	     -0.18120694	     -7.40339803	      0.18738869	      1.01614464	      0.32981810	    -10.18339064	     -1.23936822	     -1.57548595	    -23.16960500	     12.91395278	      8.32075927	     19.62752575	     35.56482578	     -3.00371260	     -1.16833018	    -18.97192660	      3.05141519	      3.06856393	      4.97773991	     -1.57771038	      2.88861092	      3.88719847
      1.27516667	     -6.98840094	     -0.00485473	     -7.38460545	      0.19381941	      1.01657612	      0.32899941	     -9.95615699	     -1.58954627	     -1.78474144	    -24.33189665	     12.17652875	      8.49512468	     19.85116089	     35.47759938	     -2.73648453	     -1.14167412	    -19.60460654	      2.90274294	      2.91875141	      4.92290710	     -1.54187243	      2.61250326	      3.85612910
      1.27933333	     -6.91094494	      0.16001672	     -7.36049496	      0.20021080	      1.01708124	      0.32818107	     -9.72301328	     -1.92409338	     -1.95541239	    -25.50993383	     11.30494159	      8.57226386	     22.84352965	     35.36295708	     -2.47449815	     -1.11485140	    -20.21839144	      2.79972462	      2.75574259	      4.21535021	     -1.53893389	      2.34623010	      3.81364350
      1.28350000	     -6.81537172	      0.30692367	     -7.31430495	      0.20655332	      1.01761876	      0.32735106	     -9.48441918	     -2.23317093	     -2.12924815	    -26.73945348	     10.47380618	      8.60085931	     22.84941190	     35.23272236	     -2.22279136	     -1.11172695	    -20.83708292	      2.78480784	      2.70721833	      4.21121324	     -1.55302016	      2.09546979	      3.76684479
      1.28766667	     -6.75930176	      0.50537238	     -7.26851452	      0.21286443	      1.01811459	      0.32648813	     -9.14070963	     -2.61002146	     -2.35608430	    -28.07690366	      9.71492784	      8.78943450	     22.93006037	     35.10250881	     -1.91183547	     -1.06237438	    -21.35158950	      2.69815437	      2.57113504	      4.18097050	     -1.52332134	      1.78191288	      3.73122232
